PathFileType	4	(X/Y/Z)	s01c0102.trc
DataRate	CameraRate	NumFrames	NumMarkers	Units	OrigDataRate	OrigDataStartFrame	OrigNumFrames
200	200	5	48	mm	200	1000	2000
Frame#	Time	racr			lacr			c7			jug			rlel			rdr			llel			ldr			s2			lic			ric			lasi			rasi			rpsi			lpsi			rgt			lgt			rth1			rth2			rth3			rth4			rlfc			rsh1			rsh2			rsh3			rsh4			rlmal			rmmal			rcal			rtoe			rmt5			lth1			lth2			lth4			lth3			llfc			lsh1			lsh2			lsh3			lsh4			llmal			lmmal			lcal			ltoe			lmt5			SBIKE			LBIKE			RBIKE			
		X1	Y1	Z1	X2	Y2	Z2	X3	Y3	Z3	X4	Y4	Z4	X5	Y5	Z5	X6	Y6	Z6	X7	Y7	Z7	X8	Y8	Z8	X9	Y9	Z9	X10	Y10	Z10	X11	Y11	Z11	X12	Y12	Z12	X13	Y13	Z13	X14	Y14	Z14	X15	Y15	Z15	X16	Y16	Z16	X17	Y17	Z17	X18	Y18	Z18	X19	Y19	Z19	X20	Y20	Z20	X21	Y21	Z21	X22	Y22	Z22	X23	Y23	Z23	X24	Y24	Z24	X25	Y25	Z25	X26	Y26	Z26	X27	Y27	Z27	X28	Y28	Z28	X29	Y29	Z29	X30	Y30	Z30	X31	Y31	Z31	X32	Y32	Z32	X33	Y33	Z33	X34	Y34	Z34	X35	Y35	Z35	X36	Y36	Z36	X37	Y37	Z37	X38	Y38	Z38	X39	Y39	Z39	X40	Y40	Z40	X41	Y41	Z41	X42	Y42	Z42	X43	Y43	Z43	X44	Y44	Z44	X45	Y45	Z45	X46	Y46	Z46	X47	Y47	Z47	X48	Y48	Z48	
1000	5.0000	479.141785	1358.638550	-125.843613	522.679993	1288.406860	-418.877655	449.776611	1402.078979	-284.145325	452.276337	1234.811401	-269.570465	545.325439	1092.481934	-21.691290	723.050049	889.969482	-63.975506	562.794922	1032.451050	-539.871460	729.621948	863.912842	-441.308624	-71.258148	1179.189941	-296.709137	101.935394	1174.851562	-459.758331	74.955727	1213.983765	-129.817505	104.000992	1126.368042	-432.986237	109.018303	1167.073242	-157.766830	-48.764286	1227.051025	-250.206207	-45.058823	1217.689819	-354.424164	42.072159	1119.085205	-92.963974	38.983921	1032.508789	-469.001709	161.105743	1061.101562	-79.525970	242.161591	1044.083252	-84.735497	328.476807	1019.440552	-94.365700	254.503662	1094.696167	-107.488876	419.116150	956.572205	-119.577026	364.989807	863.380981	-87.628311	325.639313	787.649597	-85.126602	275.908386	713.786072	-92.829544	366.554596	762.851135	-121.994728	197.417877	596.278564	-107.129272	238.841492	600.143860	-186.914932	146.483841	565.372131	-161.365433	408.702606	502.596649	-132.628128	298.065918	492.024506	-68.295166	85.884132	915.006226	-470.004730	143.934799	847.165222	-468.525635	185.976273	882.045349	-472.675415	194.392593	780.854492	-447.562042	241.161987	678.864014	-430.267029	185.221725	587.148193	-457.631592	160.580643	504.697601	-448.245056	133.717667	424.139252	-433.100372	215.334320	491.210022	-423.062012	98.815903	303.428833	-415.608643	130.387177	306.668854	-339.912018	50.213959	295.447205	-373.792633	285.653931	147.118805	-374.491730	183.809052	175.466248	-441.950806	-226.240555	893.271790	-256.124451	-12.975443	84.256500	-456.654602	-21.999884	81.598312	-56.525978	
1001	5.0050	479.098572	1359.578491	-125.766487	522.715820	1287.898193	-417.760223	449.639343	1402.070190	-283.915741	451.666382	1234.367798	-268.657074	545.482605	1093.298462	-21.591806	722.807739	890.495667	-64.329391	562.743958	1032.954102	-539.782410	730.035522	864.425049	-441.720734	-71.457275	1179.851929	-295.996277	100.971970	1176.213745	-459.805939	75.513496	1215.578735	-129.767395	103.369324	1126.928711	-432.869080	108.964523	1167.266602	-156.782959	-48.588768	1227.703369	-249.772247	-44.967392	1218.125977	-354.077148	42.176914	1119.063110	-92.987724	38.768211	1033.238159	-468.576630	161.414734	1058.720215	-79.371292	242.194626	1040.615479	-85.009056	328.096558	1014.894958	-95.031670	255.114578	1091.184448	-107.358261	418.341919	950.824280	-120.511642	364.291901	856.635315	-87.691696	326.270752	780.312195	-85.022842	277.947662	705.458069	-92.531883	367.680145	756.195312	-121.810806	202.133270	586.679688	-106.317848	243.241882	592.091553	-186.947937	152.109894	554.321960	-160.509872	416.544006	501.163177	-132.308487	306.426056	486.433441	-67.653290	87.591850	916.178162	-469.219025	147.264557	849.643860	-467.159332	188.371445	885.104004	-471.522247	198.653946	784.070862	-446.870605	245.646484	682.120422	-429.428619	186.717957	591.466553	-457.184601	160.173630	509.582703	-447.966553	131.216354	429.797119	-432.893433	213.998367	495.457611	-422.316925	92.698853	310.125092	-415.369415	124.498642	312.320099	-339.436188	43.765903	302.840698	-373.320251	276.169617	149.597122	-374.920746	174.682663	180.353210	-441.932892	-226.351669	893.257141	-256.202118	-12.987499	84.230522	-456.692200	-22.011505	81.635368	-56.542648	
1002	5.0100	479.396027	1360.386230	-125.890282	522.864075	1287.954834	-416.586487	449.632141	1402.006348	-283.783020	451.315063	1234.067017	-267.952881	545.704956	1093.961914	-21.507172	722.609436	891.097961	-65.027992	562.761719	1033.623901	-539.706970	729.398987	863.922485	-441.997284	-71.610840	1180.415894	-295.051178	100.532600	1177.096924	-460.060242	76.241615	1216.954468	-129.615707	102.746651	1127.400269	-432.653137	109.205902	1167.094604	-156.346832	-48.292637	1228.214478	-249.151764	-44.762241	1218.262695	-353.271088	42.449890	1118.657471	-92.915771	38.496777	1033.802979	-467.592804	161.738419	1056.030151	-79.164032	242.172668	1036.754639	-85.104378	327.718964	1009.633606	-95.464569	255.922699	1087.279663	-107.038826	417.103729	944.478088	-121.225464	363.457703	849.071838	-87.913284	326.891602	772.020081	-85.019928	280.144928	696.132080	-92.402863	368.804901	748.644653	-121.637207	208.090988	576.487854	-106.188271	248.427048	582.954590	-186.993607	158.152557	542.962280	-159.990097	424.183716	498.719666	-131.906998	314.598877	480.220947	-67.069923	89.435379	917.349182	-468.474030	150.461700	852.154358	-466.201599	190.686020	888.441589	-469.819519	203.061890	787.432312	-446.309418	250.433136	685.580750	-428.772766	188.478180	595.793335	-456.874512	159.914474	514.678162	-447.877350	128.901627	435.603424	-432.832916	213.354874	498.881622	-421.821838	86.659897	317.240601	-415.192841	118.780266	318.419769	-339.015015	37.469810	310.590668	-372.930023	266.860840	152.863937	-375.224213	165.876099	185.809708	-441.792786	-226.427277	893.242310	-256.268250	-13.014750	84.243576	-456.666992	-21.801178	81.583450	-56.464256	
1003	5.0150	479.811584	1360.938477	-126.100815	522.796936	1287.747681	-415.713013	449.745056	1401.938721	-283.656952	451.098541	1233.746948	-267.147583	546.021545	1094.293823	-21.509468	722.566895	891.292847	-65.406548	562.937805	1034.443726	-539.688416	728.873962	863.646179	-442.312103	-71.607628	1180.832031	-294.020386	99.497978	1177.965820	-459.431519	77.125389	1217.814331	-129.210464	102.206100	1127.776978	-432.330597	109.546799	1166.701172	-155.828979	-47.942993	1228.594849	-248.262680	-44.791660	1218.385864	-352.263489	42.874245	1117.847656	-92.741356	38.378086	1034.249023	-467.406097	162.029648	1053.086182	-78.972794	242.153870	1032.536743	-85.028610	327.158539	1004.053955	-95.603546	256.730316	1082.992554	-106.631271	415.290497	937.607178	-120.964737	362.355835	840.709045	-87.722679	327.507507	762.896973	-85.023148	282.698120	685.962769	-92.012756	370.014526	740.466431	-121.600655	214.392502	565.922363	-105.702225	253.837479	573.298218	-187.015839	163.665253	531.789795	-159.081009	431.551147	495.358643	-131.498734	322.589081	473.339020	-66.590118	91.273720	918.578918	-467.699524	153.814301	854.786255	-465.323944	193.174271	891.787720	-468.062103	207.642258	790.958008	-445.993317	255.313904	689.170166	-428.286774	190.515167	600.075012	-456.723724	159.876373	519.815002	-447.886383	126.758057	441.643372	-432.799286	212.814438	502.606415	-421.469513	80.655357	324.791473	-415.119690	113.255959	324.949341	-338.665680	31.348970	318.669891	-372.629486	257.888885	156.875549	-375.439880	157.365723	191.752686	-441.709045	-226.459900	893.229797	-256.314331	-13.013778	84.232605	-456.667694	-22.027414	81.666336	-56.555191	
1004	5.0200	480.464233	1361.429321	-126.477242	522.743958	1287.603271	-414.980957	449.936249	1401.826294	-283.530853	450.978271	1233.488159	-266.453400	546.453308	1094.497559	-21.465136	722.296753	891.362549	-65.230591	563.123596	1035.277100	-539.766235	728.549500	863.721191	-442.829346	-71.513000	1181.191895	-292.794830	98.705254	1178.499023	-458.860321	78.115257	1218.114136	-128.602600	101.818832	1127.926270	-431.841156	110.009392	1166.257935	-155.076599	-47.280769	1228.602417	-247.384094	-45.005306	1218.605957	-351.200500	43.386707	1116.620605	-92.487015	38.228409	1034.643188	-467.004791	162.355179	1050.053955	-78.664474	242.058975	1028.095947	-84.754509	326.567535	998.136658	-95.614914	257.517975	1078.397705	-106.032074	413.676819	930.249817	-121.157280	361.292664	831.725220	-87.319633	328.190796	753.126099	-84.958839	285.280334	675.245056	-91.866539	371.185181	731.896545	-121.582893	220.227280	555.491028	-105.188843	259.271606	563.525940	-187.121384	170.737350	519.739075	-159.581451	438.302979	491.106171	-131.273331	330.373962	465.926910	-66.270607	93.230309	919.793945	-467.018585	157.134216	857.460632	-464.521240	195.794296	895.239746	-466.447540	212.191666	794.503784	-445.734924	260.201141	692.746338	-427.942047	192.831436	604.457336	-456.591949	159.927109	525.087769	-447.954742	124.623520	447.856293	-432.892517	212.276154	506.441772	-421.148590	74.789421	332.592194	-415.098511	107.955589	331.891479	-338.398987	25.438190	327.062195	-372.421082	249.284134	161.775589	-375.839294	149.184723	198.248215	-441.778534	-226.450470	893.215271	-256.336456	-12.999194	84.214668	-456.674622	-22.014444	81.650345	-56.563145	
